<svg xmlns="http://www.w3.org/2000/svg" viewBox="0 0 64 64" id="flower-bucket">
  <g>
    <path fill="#f73c4f" d="M40.394 22.857A21.46 21.46 0 0 1 44.65 9.22l8.736 6.275s-5.631 7.39-12.137 7.902Z"></path>
    <path fill="#b72d3e" d="M51.478 16.388a7.713 7.713 0 0 1-6.961-4.409 2.628 2.628 0 0 1 2.466-3.894 4.92 4.92 0 0 1 4.452 2.82 2.186 2.186 0 0 1 .187.994c4.534 4.055-.144 4.489-.144 4.489Z"></path>
    <path fill="#f73c4f" d="M34.765 19.672a21.46 21.46 0 0 1-2.177-14.117l10.607 1.793s-1.807 9.114-7.425 12.434Z"></path>
    <path fill="#b72d3e" d="M41.874 8.988a7.713 7.713 0 0 1-8.19-.898 2.628 2.628 0 0 1 .502-4.582 4.92 4.92 0 0 1 5.238.574 2.186 2.186 0 0 1 .606.811c5.854 1.648 1.844 4.095 1.844 4.095Z"></path>
    <path fill="#f73c4f" d="M25.737 27.103a21.46 21.46 0 0 1-2.177-14.117l10.607 1.793s-1.808 9.114-7.426 12.434Z"></path>
    <path fill="#b72d3e" d="M32.846 16.419a7.713 7.713 0 0 1-8.19-.898 2.628 2.628 0 0 1 .502-4.582 4.92 4.92 0 0 1 5.238.574 2.185 2.185 0 0 1 .605.81c5.855 1.648 1.845 4.096 1.845 4.096Z"></path>
    <path fill="#f73c4f" d="M39.364 32.84A21.46 21.46 0 0 1 46.207 20.3l7.338 7.865s-6.97 6.144-13.45 5.37Z"></path>
    <path fill="#b72d3e" d="M51.5 28.667a7.713 7.713 0 0 1-5.962-5.687 2.628 2.628 0 0 1 3.181-3.336 4.92 4.92 0 0 1 3.813 3.637 2.185 2.185 0 0 1-.011 1.012c3.651 4.864-1.021 4.374-1.021 4.374Z"></path>
    <path fill="#f73c4f" d="M33.818 28.623a21.46 21.46 0 0 1 1.197-14.234l9.89 4.232s-3.896 8.435-10.137 10.344Z"></path>
    <path fill="#b72d3e" d="M43.236 19.905a7.713 7.713 0 0 1-7.751-2.795 2.628 2.628 0 0 1 1.563-4.336 4.92 4.92 0 0 1 4.957 1.787 2.185 2.185 0 0 1 .399.93c5.304 2.976.831 4.414.831 4.414Z"></path>
    <path fill="#f0f0ff" d="M48.289 32.317q-9.259-12.962-25.123-11.51a4.001 4.001 0 0 0-3.618 4.123l.713 20.981-3.332 4.167a4.037 4.037 0 0 0 .091 5.116 11.272 11.272 0 0 0 9.236 4.232 4.037 4.037 0 0 0 3.935-3.272l.98-5.244 16.357-13.16a4.001 4.001 0 0 0 .76-5.433Z"></path>
    <path fill="#dcdcf9" d="M48.289 32.317a34.277 34.277 0 0 0-1.811-2.302c-2.218 5.548-8.264 17.523-18.417 13.277-9.846-4.917-4.723-17.315-1.97-22.617-.957.006-1.928.04-2.925.131a4.001 4.001 0 0 0-3.618 4.124l.713 20.981-3.332 4.167a4.003 4.003 0 0 0-.427 4.302c2.586-3.507 7.022-1.187 7.022-1.187s4.654 1.845 3.686 6.093a4.003 4.003 0 0 0 2.98-3.132l.98-5.244 16.358-13.16a4.001 4.001 0 0 0 .76-5.433Z"></path>
    <path fill="#f73c4f" d="m22.893 45.155-2.59-1.877a2.46 2.46 0 0 0-3.678.967 2.46 2.46 0 0 0 1.67 3.418l3.112.736a20 20 0 0 1 7.131 3.267l2.59 1.877a2.46 2.46 0 0 0 3.679-.967 2.46 2.46 0 0 0-1.67-3.418l-3.112-.736a20 20 0 0 1-7.132-3.267Z"></path>
    <rect width="4" height="5.999" x="23.716" y="45.411" fill="#ffbd5a" rx="2" transform="rotate(24.616 25.716 48.41)"></rect>
    <path fill="#b72d3e" d="M19.178 3.272c-1.55-.729-3.549.084-4.91 1.842-2.18-.525-4.254.08-4.995 1.607-.899 1.855.51 4.364 3.146 5.604a6.288 6.288 0 0 0 4.421.464 3.827 3.827 0 0 0 .326-.113 6.156 6.156 0 0 0 3.143-3.098c1.259-2.597.752-5.42-1.131-6.306Z"></path>
    <path fill="#f73c4f" d="M17.38 4.16a1.988 1.988 0 0 0-1.573-.01 5.499 5.499 0 0 0-1.437 1.307 5.614 5.614 0 0 0-1.944-.127 1.964 1.964 0 0 0-1.246.99c-.563 1.16.319 2.73 1.969 3.506a3.935 3.935 0 0 0 2.767.29 2.358 2.358 0 0 0 .204-.07 3.853 3.853 0 0 0 1.967-1.94c.788-1.624.47-3.391-.708-3.945Z"></path>
    <path fill="#b72d3e" d="M13.178 17.27c-1.55-.729-3.549.084-4.91 1.842-2.18-.524-4.254.08-4.994 1.608-.9 1.854.509 4.363 3.146 5.603a6.288 6.288 0 0 0 4.42.464 4.12 4.12 0 0 0 .327-.113 6.156 6.156 0 0 0 3.142-3.098c1.259-2.597.753-5.42-1.13-6.306Z"></path>
    <path fill="#f73c4f" d="M11.38 18.16a1.988 1.988 0 0 0-1.573-.01 5.499 5.499 0 0 0-1.437 1.306 5.614 5.614 0 0 0-1.944-.127 1.964 1.964 0 0 0-1.246.989c-.563 1.16.319 2.73 1.97 3.507a3.935 3.935 0 0 0 2.766.29 2.231 2.231 0 0 0 .204-.071 3.853 3.853 0 0 0 1.967-1.939c.788-1.625.471-3.392-.707-3.946Z"></path>
    <path fill="#b72d3e" d="M48.176 51.267c-1.55-.73-3.549.084-4.91 1.841-2.18-.524-4.254.081-4.995 1.608-.899 1.855.51 4.364 3.146 5.604a6.287 6.287 0 0 0 4.422.463 4.011 4.011 0 0 0 .325-.113 6.157 6.157 0 0 0 3.143-3.097c1.259-2.597.753-5.42-1.13-6.306Z"></path>
    <path fill="#f73c4f" d="M46.377 52.155a1.989 1.989 0 0 0-1.572-.01 5.502 5.502 0 0 0-1.437 1.307 5.616 5.616 0 0 0-1.944-.127 1.964 1.964 0 0 0-1.246.989c-.563 1.16.319 2.73 1.969 3.507a3.934 3.934 0 0 0 2.767.29 2.231 2.231 0 0 0 .204-.071 3.853 3.853 0 0 0 1.967-1.939c.788-1.624.471-3.391-.708-3.946Z"></path>
    <path fill="#b72d3e" d="M50.822 40.268c1.55-.73 3.549.084 4.91 1.842 2.18-.525 4.254.08 4.994 1.607.9 1.855-.509 4.364-3.146 5.604a6.288 6.288 0 0 1-4.42.464 3.873 3.873 0 0 1-.327-.113 6.156 6.156 0 0 1-3.142-3.098c-1.259-2.597-.753-5.42 1.13-6.306Z"></path>
    <path fill="#f73c4f" d="M52.62 41.157a1.988 1.988 0 0 1 1.573-.01 5.497 5.497 0 0 1 1.437 1.306 5.614 5.614 0 0 1 1.944-.127 1.964 1.964 0 0 1 1.246.99c.563 1.16-.319 2.73-1.97 3.506a3.935 3.935 0 0 1-2.766.29 2.358 2.358 0 0 1-.204-.07 3.853 3.853 0 0 1-1.967-1.939c-.788-1.625-.471-3.392.708-3.947Z"></path>
    <path fill="#603913" d="M11.993 13.23a7.923 7.923 0 0 0 3.341.775 6.11 6.11 0 0 0 1.796-.259l.4-.14a7.14 7.14 0 0 0 3.678-3.592 6.922 6.922 0 0 0 .475-5.253 4.037 4.037 0 0 0-2.08-2.394c-1.81-.852-4.046-.186-5.72 1.651-2.473-.398-4.642.478-5.51 2.267a3.97 3.97 0 0 0-.108 3.119 7.019 7.019 0 0 0 3.728 3.826Zm-1.82-6.073a2.71 2.71 0 0 1 2.565-1.23 5.597 5.597 0 0 1 1.296.16.996.996 0 0 0 1.025-.36c1.098-1.42 2.619-2.055 3.693-1.55a2.116 2.116 0 0 1 1.046 1.25 4.998 4.998 0 0 1-.389 3.715 5.214 5.214 0 0 1-2.62 2.607l-.243.085a5.354 5.354 0 0 1-3.701-.414 5.095 5.095 0 0 1-2.694-2.684 2.053 2.053 0 0 1 .021-1.579Zm5.51 11.602a4.038 4.038 0 0 0-2.08-2.393c-1.81-.853-4.047-.186-5.72 1.65-2.475-.395-4.641.478-5.509 2.267a3.97 3.97 0 0 0-.108 3.119 7.018 7.018 0 0 0 3.728 3.826 7.923 7.923 0 0 0 3.34.775 6.114 6.114 0 0 0 1.797-.259l.399-.139a7.14 7.14 0 0 0 3.678-3.593 6.922 6.922 0 0 0 .476-5.253ZM13.41 23.14a5.214 5.214 0 0 1-2.62 2.607l-.243.085a5.357 5.357 0 0 1-3.7-.413 5.095 5.095 0 0 1-2.695-2.684 2.053 2.053 0 0 1 .022-1.58 2.71 2.71 0 0 1 2.565-1.23 5.597 5.597 0 0 1 1.297.16.997.997 0 0 0 1.024-.36c1.099-1.42 2.62-2.054 3.693-1.55a2.115 2.115 0 0 1 1.046 1.251 4.998 4.998 0 0 1-.389 3.714Zm35.192 27.222c-1.811-.852-4.046-.188-5.72 1.65-2.475-.397-4.642.478-5.509 2.267a3.97 3.97 0 0 0-.108 3.119 7.018 7.018 0 0 0 3.728 3.826 7.924 7.924 0 0 0 3.342.776 6.076 6.076 0 0 0 1.786-.257l.407-.141a7.14 7.14 0 0 0 3.679-3.593 6.922 6.922 0 0 0 .475-5.253 4.037 4.037 0 0 0-2.08-2.394Zm-.194 6.774a5.215 5.215 0 0 1-2.62 2.608l-.244.084a5.346 5.346 0 0 1-3.7-.413 5.1 5.1 0 0 1-2.695-2.684 2.057 2.057 0 0 1 .022-1.58 2.71 2.71 0 0 1 2.566-1.23 5.597 5.597 0 0 1 1.296.16.997.997 0 0 0 1.025-.36c1.097-1.419 2.617-2.056 3.693-1.55a2.115 2.115 0 0 1 1.046 1.251 4.998 4.998 0 0 1-.389 3.715Zm13.219-13.855c-.868-1.79-3.037-2.661-5.51-2.267-1.672-1.838-3.91-2.502-5.72-1.65a4.037 4.037 0 0 0-2.08 2.393 6.925 6.925 0 0 0 .475 5.252 7.144 7.144 0 0 0 3.673 3.591l.203.076c.07.024.14.047.198.064a6.13 6.13 0 0 0 1.802.26 7.913 7.913 0 0 0 3.34-.775 7.018 7.018 0 0 0 3.728-3.826 3.968 3.968 0 0 0-.109-3.118Zm-1.776 2.451a5.1 5.1 0 0 1-2.695 2.684 5.348 5.348 0 0 1-3.713.41l-.245-.086a5.21 5.21 0 0 1-2.606-2.602 4.997 4.997 0 0 1-.389-3.714 2.115 2.115 0 0 1 1.046-1.251A1.869 1.869 0 0 1 52.05 41a3.954 3.954 0 0 1 2.891 1.722.999.999 0 0 0 1.025.36c1.765-.423 3.35.018 3.862 1.072a2.056 2.056 0 0 1 .022 1.578Zm-24.853 3.382L48.154 38.53a4.986 4.986 0 0 0 1.22-6.32 29.608 29.608 0 0 0 4.647-3.135l.01-.008c.092-.077.153-.13.175-.15.009-.008.012-.02.02-.027a2.108 2.108 0 0 0 .4-.494c.607-1.07.263-2.496-1.052-4.354a3.2 3.2 0 0 0-.061-.955 5.84 5.84 0 0 0-2.53-3.577 28.056 28.056 0 0 0 3.197-3.407l.003-.006a2.125 2.125 0 0 0 .309-.588c.386-1.167-.232-2.499-1.886-4.063a3.203 3.203 0 0 0-.247-.923 5.913 5.913 0 0 0-5.42-3.436 3.908 3.908 0 0 0-3.001 1.46c.148-.569.223-.933.237-1.004v-.005a2.123 2.123 0 0 0 .02-.665c-.168-1.218-1.307-2.142-3.481-2.82a3.204 3.204 0 0 0-.628-.72 5.898 5.898 0 0 0-6.38-.702 3.902 3.902 0 0 0-2.088 2.72c-.003.014-.012.025-.015.04a24.551 24.551 0 0 0-.289 5.626 3.197 3.197 0 0 0-.257-.255 5.897 5.897 0 0 0-6.378-.701 3.906 3.906 0 0 0-2.09 2.72c-.002.014-.012.026-.014.04a24.349 24.349 0 0 0-.15 7.113 4.99 4.99 0 0 0-3.876 5.03l.574 16.876a3.433 3.433 0 0 0-2.003 6.399l-.972 1.215a5.057 5.057 0 0 0 .105 6.382 12.253 12.253 0 0 0 9.792 4.592l.226-.001a5.059 5.059 0 0 0 4.903-4.089l.283-1.514a3.435 3.435 0 0 0 3.54-5.709ZM24.429 19.725a22.018 22.018 0 0 1-.18-3.254 8.576 8.576 0 0 0 5.268 1.742 8.108 8.108 0 0 0 3.4-.73 23.91 23.91 0 0 0-.552 2.803 30.475 30.475 0 0 0-7.936-.561Zm18.518-.778a6.74 6.74 0 0 1-6.645-2.411 1.905 1.905 0 0 1-.377-1.723 1.893 1.893 0 0 1 1.387-1.074 2.894 2.894 0 0 1 .762-.097 4.026 4.026 0 0 1 3.124 1.508 1.164 1.164 0 0 1 .216.494c.065.457-.39.652-.67.727a2.18 2.18 0 0 1-2.092-.755 1 1 0 0 0-1.635 1.154 4.211 4.211 0 0 0 3.339 1.649 3.482 3.482 0 0 0 .91-.117 2.96 2.96 0 0 0 1.76-1.227c.797.593.983.99.971 1.118-.021.223-.59.596-1.05.754Zm-6.158-7.138a4.173 4.173 0 0 0-2.152 1.343 4.095 4.095 0 0 0-1.193-.937 22.143 22.143 0 0 1-.164-3.173 8.571 8.571 0 0 0 5.265 1.74 8.383 8.383 0 0 0 2.74-.455 27.196 27.196 0 0 1-.74 1.86 5.695 5.695 0 0 0-3.756-.378Zm-1.923 6.12a8.787 8.787 0 0 0 6.735 3.185c.252 0 .501-.022.75-.047a26.246 26.246 0 0 1-1.828 2.467 25.308 25.308 0 0 0-6.2-2.762 21.963 21.963 0 0 1 .543-2.843Zm9.704 3.385a4.48 4.48 0 0 0-.013 1.863 8.738 8.738 0 0 0 5.66 6.202c-.597.389-1.268.792-2.003 1.184a30.05 30.05 0 0 0-6.01-5.906 28.858 28.858 0 0 0 2.366-3.343Zm6.985 2.718c-.124.445-.617.441-.906.395a2.18 2.18 0 0 1-1.61-1.534 1 1 0 0 0-1.961.395 4.173 4.173 0 0 0 3.267 3.116 3.541 3.541 0 0 0 .543.043 2.814 2.814 0 0 0 1.565-.452c.488.862.499 1.3.436 1.413-.11.195-.78.305-1.267.266a6.737 6.737 0 0 1-5.104-4.889 1.905 1.905 0 0 1 .35-1.729 1.904 1.904 0 0 1 1.705-.422 3.958 3.958 0 0 1 2.983 2.858 1.172 1.172 0 0 1-.002.54Zm-6.11-14.2a1.888 1.888 0 0 1 1.588-.748l.12-.003a3.981 3.981 0 0 1 3.366 2.223 1.182 1.182 0 0 1 .105.527c-.033.463-.522.554-.812.567a2.198 2.198 0 0 1-1.88-1.19 1 1 0 1 0-1.844.773 4.188 4.188 0 0 0 3.668 2.418c.048 0 .097-.001.145-.004a2.96 2.96 0 0 0 1.986-.816c.65.752.746 1.18.706 1.303-.069.212-.705.454-1.189.508a6.744 6.744 0 0 1-5.964-3.794 1.903 1.903 0 0 1 .005-1.764Zm-1.851 2.533a8.247 8.247 0 0 0 6.785 4.958c-.439.43-.939.885-1.479 1.34-.01-.001-.018-.005-.028-.006a3.879 3.879 0 0 0-3.323.916c.15-.293.242-.485.264-.533l.002-.009a2.125 2.125 0 0 0 .172-.638c.123-1.222-.768-2.389-2.721-3.558a3.209 3.209 0 0 0-.442-.848 4.803 4.803 0 0 0-.583-.675c.41-.897.749-1.763 1.018-2.54a3.972 3.972 0 0 0 .335 1.593Zm-8.926-7.98a3.409 3.409 0 0 1 1.629-.377 3.854 3.854 0 0 1 2.48.837 1.18 1.18 0 0 1 .326.427c.172.43-.226.727-.48.865a2.178 2.178 0 0 1-2.212-.242A1 1 0 0 0 35.093 7.4a4.088 4.088 0 0 0 2.658.932 3.833 3.833 0 0 0 1.832-.44 2.959 2.959 0 0 0 1.423-1.606c.914.389 1.188.732 1.207.86.031.22-.433.717-.845.98a6.736 6.736 0 0 1-7.023-.786 1.902 1.902 0 0 1-.773-1.586 1.892 1.892 0 0 1 1.096-1.37Zm-9.028 7.43a3.405 3.405 0 0 1 1.628-.377 3.847 3.847 0 0 1 2.48.837 1.18 1.18 0 0 1 .327.428c.171.43-.227.726-.481.866a2.173 2.173 0 0 1-2.21-.243 1 1 0 0 0-1.318 1.504 4.089 4.089 0 0 0 2.657.933 3.83 3.83 0 0 0 1.83-.44 2.96 2.96 0 0 0 1.425-1.607c.913.39 1.188.732 1.206.86.032.221-.433.718-.844.98a6.74 6.74 0 0 1-7.024-.785 1.905 1.905 0 0 1-.772-1.587 1.891 1.891 0 0 1 1.096-1.37Zm-8.106 32.847a1.455 1.455 0 0 1 .956-.804 1.47 1.47 0 0 1 .372-.048 1.454 1.454 0 0 1 .855.278l2.59 1.876c.307.223.622.43.94.631l-.518 1.132c-.36-.11-.722-.214-1.091-.302l-3.114-.735a1.46 1.46 0 0 1-.99-2.028Zm9.507 3.256-.833 1.818a1.002 1.002 0 0 1-1.325.493 1 1 0 0 1-.493-1.326l.833-1.818a.994.994 0 0 1 .56-.52 1.009 1.009 0 0 1 .35-.064 1 1 0 0 1 .909 1.417Zm2.166 8.052a3.05 3.05 0 0 1-2.965 2.456 10.2 10.2 0 0 1-8.456-3.874 3.051 3.051 0 0 1-.076-3.85l1.446-1.808 2.02.478c.391.093.774.208 1.154.328a2.975 2.975 0 0 0 4.618 2.118c.34.21.677.422 1.003.658l1.681 1.218Zm4.69-3.811a1.46 1.46 0 0 1-2.183.574l-2.589-1.877c-.307-.222-.622-.43-.94-.631l.517-1.13c.36.11.723.212 1.092.3l3.112.736a1.46 1.46 0 0 1 .991 2.028Zm-.844-4.048-2.798-.662a16.15 16.15 0 0 1-1.156-.33 2.974 2.974 0 0 0-4.614-2.117c-.34-.211-.679-.421-1.005-.658l-2.33-1.687-.603-17.76a2.998 2.998 0 0 1 2.71-3.095q1.586-.145 3.097-.145c8.8 0 15.732 3.697 21.122 11.24a2.997 2.997 0 0 1-.576 4.074Z"></path>
  </g>
</svg>
