<?xml version="1.0"?><svg xmlns="http://www.w3.org/2000/svg" id="Flower_Bouquet" viewBox="0 0 64 64"><path d="m25,63c0-2.57910156,1.00439453-5.00390625,2.82861328-6.828125l1.17138672-1.171875h6l1.17138672,1.171875c1.82421875,1.82421875,2.82861328,4.24902344,2.82861328,6.828125h-14Z" style="fill:#8dc9ff; stroke-width:0px;"/><path d="m18,13c-3.30859375,0-6-2.69140625-6-6V1c6.61669922,0,12,5.3828125,12,12h-6Z" style="fill:#79e2b2; stroke-width:0px;"/><path d="m40,13c0-6.6171875,5.38330078-12,12-12v6c0,3.30859375-2.69140625,6-6,6h-6Z" style="fill:#79e2b2; stroke-width:0px;"/><path d="m28,51c-9.11230469-4.25195312-15-13.49707031-15-23.55273438v-2.44726562h38v2.44726562c0,10.05566406-5.88769531,19.30078125-15,23.55273438h-8Z" style="fill:#66afff; stroke-width:0px;"/><path d="m28,51c-9.11230469-4.25195312-15-13.49707031-15-23.55273438v-2.44726562h19c-4.93408203,8.01855469-4.93408203,17.98144531,0,26h-4Z" style="fill:#8dc9ff; stroke-width:0px;"/><path d="m32,23c-1.3203125,0-2.51171875-.62402344-3.26757812-1.71191406l-.36523438-.52441406-.62988281.11132812c-.22998047.04003906-.46484375.06054688-.69873047.06054688-1.05664062,0-2.08398438-.42089844-2.81884766-1.15527344-.91455078-.91503906-1.32373047-2.22949219-1.09521484-3.51660156l.11230469-.62988281-.52587891-.36621094c-1.08740234-.75585938-1.7109375-1.94628906-1.7109375-3.26757812s.62353516-2.51171875,1.7109375-3.26757812l.52587891-.36621094-.11230469-.62988281c-.22851562-1.28710938.18066406-2.6015625,1.09521484-3.51660156.73583984-.734375,1.76318359-1.15625,2.81835938-1.15625.23388672,0,.46875.02148438.69824219.06152344l.63037109.11230469.36572266-.52539062c.75585938-1.08789062,1.94726562-1.71191406,3.26757812-1.71191406s2.51171875.62402344,3.26757812,1.71191406l.36621094.52636719.63134766-.11328125c.22949219-.04101562.46484375-.06152344.69921875-.06152344,1.05419922,0,2.08056641.42089844,2.81591797,1.15625.91455078.91503906,1.32373047,2.22949219,1.09521484,3.51660156l-.11230469.62988281.52587891.36621094c1.08740234.75585938,1.7109375,1.94628906,1.7109375,3.26757812s-.62353516,2.51171875-1.7109375,3.26757812l-.52587891.36621094.11230469.62988281c.22851562,1.28710938-.18066406,2.6015625-1.09521484,3.51660156-.73535156.73535156-1.76123047,1.15625-2.81445312,1.15625h0c-.23486328,0-.47070312-.02050781-.70117188-.06152344l-.63085938-.11230469-.36621094.52539062c-.75585938,1.08789062-1.94726562,1.71191406-3.26757812,1.71191406Z" style="fill:#d33755; stroke-width:0px;"/><circle cx="32" cy="12" r="5" style="fill:#b72a46; stroke-width:0px;"/><path d="m19,32c-1.3203125,0-2.51171875-.62402344-3.26757812-1.71191406l-.36523438-.52441406-.62988281.11132812c-.22998047.04003906-.46582031.06054688-.69970703.06054688-1.05615234,0-2.08300781-.42089844-2.81787109-1.15527344-.91455078-.91503906-1.32373047-2.22949219-1.09521484-3.51660156l.11230469-.62988281-.52587891-.36621094c-1.08740234-.75585938-1.7109375-1.94628906-1.7109375-3.26757812s.62353516-2.51171875,1.7109375-3.26757812l.52587891-.36621094-.11230469-.62988281c-.22851562-1.28710938.18066406-2.6015625,1.09521484-3.51660156.73535156-.734375,1.76220703-1.15625,2.81738281-1.15625.234375,0,.46972656.02050781.69921875.06152344l.63037109.11230469.36572266-.52539062c.75585938-1.08789062,1.94726562-1.71191406,3.26757812-1.71191406s2.51171875.62402344,3.26757812,1.71191406l.36621094.52636719.63134766-.11328125c.22949219-.04101562.46484375-.06152344.69921875-.06152344,1.05419922,0,2.08056641.42089844,2.81591797,1.15625.91455078.91503906,1.32373047,2.22949219,1.09521484,3.51660156l-.11230469.62988281.52587891.36621094c1.08740234.75585938,1.7109375,1.94628906,1.7109375,3.26757812s-.62353516,2.51171875-1.7109375,3.26757812l-.52587891.36621094.11230469.62988281c.22851562,1.28710938-.18066406,2.6015625-1.09521484,3.51660156-.73486328.73535156-1.76025391,1.15722656-2.81396484,1.15722656-.23486328,0-.47119141-.02148438-.70166016-.0625l-.63085938-.11230469-.36621094.52539062c-.75585938,1.08789062-1.94726562,1.71191406-3.26757812,1.71191406Z" style="fill:#ea4766; stroke-width:0px;"/><circle cx="19" cy="21" r="5" style="fill:#d33755; stroke-width:0px;"/><path d="m45,32c-1.3203125,0-2.51171875-.62402344-3.26757812-1.71191406l-.36523438-.52441406-.63037109.11132812c-.22949219.04003906-.46484375.06054688-.69921875.06054688-1.05615234,0-2.08349609-.42089844-2.81787109-1.15527344-.91455078-.91503906-1.32373047-2.22949219-1.09521484-3.51660156l.11230469-.62988281-.52587891-.36621094c-1.08740234-.75585938-1.7109375-1.94628906-1.7109375-3.26757812s.62353516-2.51171875,1.7109375-3.26757812l.52587891-.36621094-.11230469-.62988281c-.22851562-1.28710938.18066406-2.6015625,1.09521484-3.51660156.73486328-.734375,1.76220703-1.15625,2.81787109-1.15625.23388672,0,.46923828.02050781.69873047.06152344l.63037109.11230469.36572266-.52539062c.75585938-1.08789062,1.94726562-1.71191406,3.26757812-1.71191406s2.51171875.62402344,3.26757812,1.71191406l.36621094.52636719.63134766-.11328125c.22949219-.04101562.46533203-.06152344.69970703-.06152344,1.05322266,0,2.07958984.42089844,2.81542969,1.15625.91455078.91503906,1.32373047,2.22949219,1.09521484,3.51660156l-.11230469.62988281.52587891.36621094c1.08740234.75585938,1.7109375,1.94628906,1.7109375,3.26757812s-.62353516,2.51171875-1.7109375,3.26757812l-.52587891.36621094.11230469.62988281c.22851562,1.28710938-.18066406,2.6015625-1.09521484,3.51660156-.73486328.73535156-1.76025391,1.15722656-2.81347656,1.15722656-.23535156,0-.47167969-.02148438-.70214844-.0625l-.63085938-.11230469-.36621094.52539062c-.75585938,1.08789062-1.94726562,1.71191406-3.26757812,1.71191406Z" style="fill:#ea4766; stroke-width:0px;"/><circle cx="45" cy="21" r="5" style="fill:#d33755; stroke-width:0px;"/><path d="m32,36c-1.3203125,0-2.51171875-.62402344-3.26757812-1.71191406l-.36572266-.52539062-.63037109.11230469c-.22998047.04101562-.46533203.06152344-.69970703.06152344-1.05566406,0-2.08203125-.421875-2.81689453-1.15625-.91455078-.91503906-1.32373047-2.22949219-1.09521484-3.51660156l.11230469-.62988281-.52587891-.36621094c-1.08740234-.75585938-1.7109375-1.94628906-1.7109375-3.26757812s.62353516-2.51171875,1.7109375-3.26757812l.52587891-.36621094-.11230469-.62988281c-.22851562-1.28710938.18066406-2.6015625,1.09521484-3.51660156.73535156-.734375,1.76318359-1.15527344,2.81982422-1.15527344.23339844,0,.46826172.02050781.69726562.06054688l.62988281.11230469.36572266-.52539062c.75585938-1.08789062,1.94726562-1.71191406,3.26757812-1.71191406s2.51171875.62402344,3.26757812,1.71191406l.36621094.52636719.63134766-.11328125c.22949219-.04101562.46484375-.06152344.69921875-.06152344,1.05419922,0,2.08056641.42089844,2.81591797,1.15625.91455078.91503906,1.32373047,2.22949219,1.09521484,3.51660156l-.11230469.62988281.52587891.36621094c1.08740234.75585938,1.7109375,1.94628906,1.7109375,3.26757812s-.62353516,2.51171875-1.7109375,3.26757812l-.52587891.36621094.11230469.62988281c.22851562,1.28710938-.18066406,2.6015625-1.09521484,3.51660156-.73535156.73535156-1.76123047,1.15625-2.81445312,1.15625h0c-.23486328,0-.47070312-.02050781-.70117188-.06152344l-.63085938-.11230469-.36621094.52539062c-.75585938,1.08789062-1.94726562,1.71191406-3.26757812,1.71191406Z" style="fill:#f95d77; stroke-width:0px;"/><circle cx="32" cy="25" r="5" style="fill:#ea4766; stroke-width:0px;"/><path d="m28,55c-1.10302734,0-2-.89746094-2-2s.89697266-2,2-2h8c1.10302734,0,2,.89746094,2,2s-.89697266,2-2,2h-8Z" style="fill:#ffcd5f; stroke-width:0px;"/><path d="m12.44042969,10.25c.12890625,0,.26025391-.02539062.38671875-.078125.50927734-.21386719.74853516-.79980469.53466797-1.30957031-.24023438-.57128906-.36181641-1.19824219-.36181641-1.86230469V2.04492188c2.57666016.23046875,4.96875,1.34960938,6.82128906,3.20996094.39013672.39160156,1.02294922.39355469,1.4140625.00390625s.39257812-1.0234375.00292969-1.4140625C18.77050781,1.36523438,15.48974609,0,12,0c-.55224609,0-1,.44726562-1,1v6c0,.93164062.17431641,1.81933594.51806641,2.63769531.16064453.38183594.53173828.61230469.92236328.61230469Z" style="fill:#30333d; stroke-width:0px;"/><path d="m44.17871094,5.25488281c1.85253906-1.86035156,4.24462891-2.97949219,6.82128906-3.20996094v4.95507812c0,.6640625-.12158203,1.29101562-.36181641,1.86230469-.21386719.50976562.02539062,1.09570312.53466797,1.30957031.12646484.05371094.2578125.078125.38671875.078125.390625,0,.76171875-.23046875.92236328-.61230469.34375-.81835938.51806641-1.70605469.51806641-2.63769531V1c0-.55273438-.44775391-1-1-1-3.48974609,0-6.77050781,1.36523438-9.23828125,3.84472656-.38964844.390625-.38818359,1.02441406.00292969,1.4140625.39208984.38964844,1.02441406.38769531,1.4140625-.00390625Z" style="fill:#30333d; stroke-width:0px;"/><path d="m50.63037109,31.94238281c-.54052734-.12011719-1.07177734.2265625-1.18798828.76660156-1.62060547,7.52734375-6.72167969,13.97460938-13.66650391,17.29101562h-3.19549561c-2.13653564-3.64556885-3.26989746-7.7989502-3.26055908-12.05761719.00097656-.55175781-.44580078-1.00097656-.99804688-1.00195312h-.00195312c-.55126953,0-.99902344.44628906-1,.99804688-.00897217,4.22528076,1.01043701,8.35974121,2.95935059,12.06152344h-2.05505371c-4.22314453-2.01855469-7.78564453-5.17089844-10.31201172-9.12890625-1.60449219-2.50878906-2.73291016-5.25488281-3.35400391-8.16015625-.11572266-.54003906-.6484375-.88574219-1.18701172-.76855469-.54003906.11523438-.88427734.64648438-.76904297,1.18652344.67138672,3.140625,1.89111328,6.10839844,3.625,8.81933594,2.40753174,3.77258301,5.68969727,6.86529541,9.56414795,9.03851318-.48657227.53344727-.79119873,1.23596191-.79119873,2.01324463,0,1.24554443.76348877,2.31494141,1.84655762,2.76794434-1.83239746,1.9753418-2.84655762,4.52282715-2.84655762,7.23205566,0,.55273438.44775391,1,1,1h14c.55224609,0,1-.44726562,1-1,0-2.70922852-1.01416016-5.25671387-2.84655762-7.23205566,1.08312988-.45300293,1.84655762-1.52233887,1.84655762-2.76794434,0-.77990723-.30633545-1.48480225-.7958374-2.01885986,6.69445801-3.76367188,11.56799316-10.30053711,13.19329834-17.85028076.11621094-.54003906-.22705078-1.07226562-.76708984-1.18847656Zm-14.63037109,20.05761719c.55126953,0,1,.44824219,1,1s-.44873047,1-1,1h-8c-.55126953,0-1-.44824219-1-1s.44873047-1,1-1h8Zm-9.94335938,10c.22119141-1.93457031,1.08203125-3.72460938,2.47900391-5.12109375l.87890625-.87890625h5.17089844l.87890625.87890625c1.39697266,1.39648438,2.2578125,3.18652344,2.47900391,5.12109375h-11.88671875Z" style="fill:#30333d; stroke-width:0px;"/><path d="m23.64013672,9.33007812c.51904297-.1875.78808594-.76171875.60009766-1.28027344-.39941406-1.10351562-.13623047-2.29980469.68701172-3.12304688.82275391-.82226562,2.01806641-1.0859375,3.12304688-.68652344.48242188.17285156,1.02050781-.04492188,1.2421875-.50878906.51025391-1.06835938,1.54785156-1.73144531,2.70751953-1.73144531s2.19726562.66308594,2.70751953,1.73144531c.22167969.46386719.76025391.68164062,1.2421875.50878906,1.10351562-.39941406,2.29980469-.13574219,3.12304688.68652344.82324219.82324219,1.08642578,2.01953125.68701172,3.12304688-.18798828.51855469.08105469,1.09277344.60009766,1.28027344.11230469.04101562.22753906.05957031.34033203.05957031.40917969,0,.79296875-.25292969.94042969-.66015625.65576172-1.8125.203125-3.86035156-1.15380859-5.21679688-1.15478516-1.15527344-2.81152344-1.65527344-4.39794922-1.37207031-.93017578-1.33789062-2.43359375-2.140625-4.08886719-2.140625s-3.15869141.80273438-4.08886719,2.140625c-1.58349609-.28125-3.2421875.21777344-4.39794922,1.37207031-1.35693359,1.35644531-1.80957031,3.40429688-1.15380859,5.21679688.18798828.51953125.75976562.79003906,1.28076172.60058594Z" style="fill:#30333d; stroke-width:0px;"/><path d="m36.97705078,10.8828125c.50439453-.22460938.73095703-.81542969.50634766-1.3203125-.96435547-2.1640625-3.11669922-3.5625-5.48339844-3.5625-2.37597656,0-4.52880859,1.40429688-5.48535156,3.578125-.22216797.50488281.00732422,1.09570312.51269531,1.31738281.13134766.05761719.26757812.08496094.40234375.08496094.38427734,0,.75097656-.22265625.91601562-.59765625.63671875-1.44726562,2.07128906-2.3828125,3.65429688-2.3828125,1.57763672,0,3.01318359.93261719,3.65625,2.37695312.22460938.50390625.81494141.73144531,1.32080078.50585938Z" style="fill:#30333d; stroke-width:0px;"/><path d="m14.91113281,30.859375c.93017578,1.33789062,2.43359375,2.140625,4.08886719,2.140625.54492188,0,1.09082031-.09179688,1.62255859-.2734375.52246094-.17773438.80175781-.74609375.62353516-1.26855469-.17822266-.5234375-.74658203-.80566406-1.26904297-.62402344-1.48242188.50292969-3.02929688-.19335938-3.68457031-1.56542969-.22167969-.46386719-.76025391-.68164062-1.2421875-.50878906-1.10449219.3984375-2.30029297.13574219-3.12304688-.68652344-.82324219-.82324219-1.08642578-2.01953125-.68701172-3.12304688.17480469-.48339844-.04541016-1.02050781-.50878906-1.2421875-1.06787109-.51074219-1.73144531-1.54785156-1.73144531-2.70800781s.66357422-2.19726562,1.73144531-2.70800781c.46337891-.22167969.68359375-.75878906.50878906-1.2421875-.39941406-1.10351562-.13623047-2.29980469.68701172-3.12304688.82275391-.82226562,2.01757812-1.0859375,3.12304688-.68652344.48193359.171875,1.02050781-.04394531,1.2421875-.50878906.51025391-1.06835938,1.54785156-1.73144531,2.70751953-1.73144531s2.19726562.66308594,2.70751953,1.73144531c.22167969.46386719.76025391.6796875,1.24365234.50878906,1.03955078-.37988281,2.18798828-.15722656,2.99560547.57910156.40820312.37304688,1.04101562.34082031,1.41259766-.06542969.37207031-.40820312.34228516-1.04101562-.06591797-1.41308594-1.14794922-1.04492188-2.69921875-1.47949219-4.20605469-1.20214844-.93017578-1.33691406-2.43261719-2.13867188-4.08740234-2.13867188-1.65527344,0-3.15869141.80273438-4.08886719,2.140625-1.58398438-.28125-3.2421875.21679688-4.39794922,1.37207031-1.15527344,1.15527344-1.65527344,2.81152344-1.37304688,4.3984375-1.33740234.9296875-2.14013672,2.43359375-2.14013672,4.08886719s.80273438,3.15917969,2.14013672,4.08886719c-.28222656,1.58691406.21728516,3.24316406,1.37304688,4.3984375,1.15527344,1.15527344,2.81298828,1.65332031,4.39794922,1.37207031Z" style="fill:#30333d; stroke-width:0px;"/><path d="m19,17c.56933594,0,1.12548828.11914062,1.65332031.35449219.50537109.22363281,1.09619141-.00292969,1.3203125-.5078125.22460938-.50390625-.00244141-1.09570312-.50683594-1.3203125-.78564453-.34960938-1.61572266-.52636719-2.46679688-.52636719-3.30859375,0-6,2.69140625-6,6,0,2.890625,2.05566406,5.36914062,4.88769531,5.89355469.06152344.01171875.12304688.01660156.18310547.01660156.47265625,0,.89306641-.3359375.98242188-.81835938.10058594-.54296875-.25830078-1.06445312-.80126953-1.16503906-1.88427734-.34863281-3.25195312-2-3.25195312-3.92675781,0-2.20605469,1.79443359-4,4-4Z" style="fill:#30333d; stroke-width:0px;"/><path d="m57,21c0-1.65527344-.80273438-3.15917969-2.14013672-4.08886719.28222656-1.58691406-.21728516-3.24316406-1.37304688-4.3984375-1.15527344-1.15527344-2.8125-1.65527344-4.39794922-1.37207031-.93017578-1.33789062-2.43359375-2.140625-4.08886719-2.140625-1.65478516,0-3.15722656.80175781-4.08740234,2.13769531-1.50488281-.27148438-3.05859375.15820312-4.20605469,1.203125-.40820312.37207031-.43798828,1.00488281-.06591797,1.41308594.37158203.40625,1.00488281.43847656,1.41259766.06542969.80664062-.73535156,1.95458984-.95898438,2.99560547-.57910156.48291016.17089844,1.02099609-.04492188,1.24365234-.50878906.51025391-1.06835938,1.54785156-1.73144531,2.70751953-1.73144531s2.19726562.66308594,2.70751953,1.73144531c.22167969.46484375.76074219.68066406,1.2421875.50878906,1.10351562-.39941406,2.30078125-.13574219,3.12304688.68652344.82324219.82324219,1.08642578,2.01953125.68701172,3.12304688-.17480469.48339844.04541016,1.02050781.50878906,1.2421875,1.06787109.51074219,1.73144531,1.54785156,1.73144531,2.70800781s-.66357422,2.19726562-1.73144531,2.70800781c-.46337891.22167969-.68359375.75878906-.50878906,1.2421875.39941406,1.10351562.13623047,2.29980469-.68701172,3.12304688-.82324219.82226562-2.02001953,1.08398438-3.12304688.68652344-.48144531-.17285156-1.02050781.04492188-1.2421875.50878906-.65576172,1.37109375-2.20410156,2.06738281-3.68457031,1.56542969-.52294922-.18164062-1.09082031.10058594-1.26904297.62402344-.17822266.52246094.10107422,1.09082031.62353516,1.26855469.53173828.18164062,1.07763672.2734375,1.62255859.2734375,1.65527344,0,3.15869141-.80273438,4.08886719-2.140625,1.5859375.28320312,3.24316406-.21582031,4.39794922-1.37207031,1.15527344-1.15527344,1.65527344-2.81152344,1.37304688-4.3984375,1.33740234-.9296875,2.14013672-2.43359375,2.14013672-4.08886719Z" style="fill:#30333d; stroke-width:0px;"/><path d="m45.74804688,24.92675781c-.54296875.10058594-.90185547.62207031-.80126953,1.16503906.08935547.48242188.50976562.81835938.98242188.81835938.06005859,0,.12158203-.00488281.18310547-.01660156,2.83203125-.52441406,4.88769531-3.00292969,4.88769531-5.89355469,0-3.30859375-2.69140625-6-6-6-.85107422,0-1.68115234.17675781-2.46679688.52636719-.50439453.22460938-.73144531.81640625-.50683594,1.3203125.22460938.50488281.81494141.73144531,1.3203125.5078125.52783203-.23535156,1.08398438-.35449219,1.65332031-.35449219,2.20556641,0,4,1.79394531,4,4,0,1.92675781-1.36767578,3.578125-3.25195312,3.92675781Z" style="fill:#30333d; stroke-width:0px;"/><path d="m40.48730469,16.51269531c-1.15576172-1.15527344-2.81591797-1.65527344-4.3984375-1.37207031-.93017578-1.33789062-2.43359375-2.140625-4.08886719-2.140625s-3.15869141.80273438-4.08886719,2.140625c-1.58349609-.28027344-3.2421875.21777344-4.3984375,1.37207031-1.15527344,1.15527344-1.65478516,2.81152344-1.37255859,4.3984375-1.33740234.9296875-2.14013672,2.43359375-2.14013672,4.08886719s.80273438,3.15917969,2.14013672,4.08886719c-.28222656,1.58691406.21728516,3.24316406,1.37255859,4.3984375s2.8125,1.65332031,4.3984375,1.37207031c.93017578,1.33789062,2.43359375,2.140625,4.08886719,2.140625s3.15869141-.80273438,4.08886719-2.140625c1.58544922.28320312,3.24316406-.21679688,4.3984375-1.37207031s1.65478516-2.81152344,1.37255859-4.3984375c1.33740234-.9296875,2.14013672-2.43359375,2.14013672-4.08886719s-.80273438-3.15917969-2.14013672-4.08886719c.28222656-1.58691406-.21728516-3.24316406-1.37255859-4.3984375Zm1.51269531,8.48730469c0,1.16015625-.66357422,2.19726562-1.73144531,2.70800781-.46337891.22167969-.68359375.75878906-.50878906,1.2421875.39941406,1.10351562.13623047,2.29980469-.68652344,3.12304688-.82373047.82128906-2.02099609,1.08398438-3.12353516.68652344-.48193359-.171875-1.02050781.04492188-1.2421875.50878906-.51025391,1.06835938-1.54785156,1.73144531-2.70751953,1.73144531s-2.19726562-.66308594-2.70751953-1.73144531c-.17041016-.35644531-.52734375-.56835938-.90234375-.56835938-.11328125,0-.22802734.01953125-.33984375.05957031-1.10449219.3984375-2.30126953.13574219-3.12353516-.68652344-.82275391-.82324219-1.0859375-2.01953125-.68652344-3.12304688.17480469-.48339844-.04541016-1.02050781-.50878906-1.2421875-1.06787109-.51074219-1.73144531-1.54785156-1.73144531-2.70800781s.66357422-2.19726562,1.73144531-2.70800781c.46337891-.22167969.68359375-.75878906.50878906-1.2421875-.39941406-1.10351562-.13623047-2.29980469.68652344-3.12304688.82226562-.82226562,2.01855469-1.0859375,3.12353516-.68652344.48242188.17285156,1.02050781-.04492188,1.2421875-.50878906.51025391-1.06835938,1.54785156-1.73144531,2.70751953-1.73144531s2.19726562.66308594,2.70751953,1.73144531c.22167969.46386719.76025391.68164062,1.2421875.50878906,1.10351562-.3984375,2.30078125-.13574219,3.12353516.68652344.82275391.82324219,1.0859375,2.01953125.68652344,3.12304688-.17480469.48339844.04541016,1.02050781.50878906,1.2421875,1.06787109.51074219,1.73144531,1.54785156,1.73144531,2.70800781Z" style="fill:#30333d; stroke-width:0px;"/><path d="m32,19c-3.30859375,0-6,2.69140625-6,6s2.69140625,6,6,6,6-2.69140625,6-6-2.69140625-6-6-6Zm0,10c-2.20556641,0-4-1.79394531-4-4s1.79443359-4,4-4,4,1.79394531,4,4-1.79443359,4-4,4Z" style="fill:#30333d; stroke-width:0px;"/></svg>